<svg width="101" height="14" viewBox="0 0 101 14" fill="none" xmlns="http://www.w3.org/2000/svg">
<g clip-path="url(#clip0_550_1931)">
<path d="M29.7814 5.50651H22.4189V2.91305H31.6875V0.31958H22.4019C21.7571 0.31958 21.1386 0.590922 20.6826 1.07391C20.2266 1.55691 19.9705 2.21198 19.9705 2.89504V5.52452C19.9705 6.20757 20.2266 6.86265 20.6826 7.34564C21.1386 7.82863 21.7571 8.09998 22.4019 8.09998H29.7644V10.6934H20.1456V13.2869H29.7814C30.4263 13.2869 31.0447 13.0156 31.5007 12.5326C31.9567 12.0496 32.2129 11.3945 32.2129 10.7115V8.08197C32.2129 7.39891 31.9567 6.74384 31.5007 6.26084C31.0447 5.77785 30.4263 5.50651 29.7814 5.50651Z" fill="white"/>
<path d="M44.0387 0.31958H36.649C36.3298 0.31958 36.0137 0.386209 35.7188 0.51566C35.4239 0.645111 35.156 0.834846 34.9303 1.07402C34.7047 1.3132 34.5257 1.59713 34.4037 1.90959C34.2817 2.22205 34.219 2.55691 34.2192 2.89504V10.7115C34.219 11.0496 34.2817 11.3844 34.4037 11.6969C34.5257 12.0094 34.7047 12.2933 34.9303 12.5325C35.156 12.7716 35.4239 12.9614 35.7188 13.0908C36.0137 13.2203 36.3298 13.2869 36.649 13.2869H44.0387C44.6835 13.2869 45.302 13.0156 45.758 12.5326C46.214 12.0496 46.4702 11.3945 46.4702 10.7115V2.89504C46.4702 2.21198 46.214 1.55691 45.758 1.07391C45.302 0.590922 44.6835 0.31958 44.0387 0.31958V0.31958ZM44.0217 10.6934H36.6762V2.91305H44.0217V10.6934Z" fill="white"/>
<path d="M69.9008 0.319581H62.6948C62.0499 0.319581 61.4315 0.590923 60.9755 1.07391C60.5195 1.55691 60.2633 2.21198 60.2633 2.89504V13.2869H62.7118V9.0257H69.8838V13.2869H72.3323V2.89504C72.3325 2.55676 72.2698 2.22175 72.1477 1.90917C72.0256 1.5966 71.8465 1.31259 71.6206 1.07339C71.3948 0.834186 71.1267 0.644488 70.8316 0.515143C70.5365 0.385798 70.2202 0.319344 69.9008 0.319581ZM69.8838 6.43223H62.7118V2.91305H69.8838V6.43223Z" fill="white"/>
<path d="M98.5685 0.319586H91.3642C91.0445 0.318875 90.7277 0.384967 90.4321 0.514078C90.1365 0.643188 89.8679 0.832782 89.6416 1.07201C89.4153 1.31123 89.2357 1.59539 89.1132 1.90821C88.9907 2.22103 88.9276 2.55637 88.9276 2.89504V13.2869H91.3761V9.02571H98.5515V13.2869H101V2.89504C101 2.21199 100.744 1.55691 100.288 1.07392C99.8318 0.590928 99.2134 0.319586 98.5685 0.319586ZM98.5515 6.43224H91.3812V2.91305H98.5515V6.43224Z" fill="white"/>
<path d="M84.3044 10.6934H83.325L79.8156 1.40019C79.6955 1.08133 79.488 0.807928 79.2197 0.615296C78.9515 0.422664 78.6348 0.319656 78.3108 0.31958L76.1309 0.31958C75.7012 0.31958 75.289 0.500411 74.9851 0.822293C74.6812 1.14417 74.5105 1.58074 74.5105 2.03595V13.2869H76.959V2.91305H77.9384L81.4462 12.2063C81.5657 12.5252 81.7729 12.7986 82.0409 12.9913C82.3089 13.184 82.6254 13.287 82.9493 13.2869H85.1291C85.5589 13.2869 85.971 13.1061 86.2749 12.7842C86.5788 12.4623 86.7495 12.0257 86.7495 11.5705V0.31958H84.301L84.3044 10.6934Z" fill="white"/>
<path d="M51.0884 0.31958H48.6399V10.7115C48.6399 11.3945 48.8961 12.0496 49.3521 12.5326C49.808 13.0156 50.4265 13.2869 51.0714 13.2869H58.4338V10.6934H51.0884V0.31958Z" fill="white"/>
<path fill-rule="evenodd" clip-rule="evenodd" d="M2.59136 10.2072C2.63483 10.1573 2.68736 10.1172 2.74579 10.0894C2.80423 10.0615 2.86737 10.0465 2.93143 10.0451H13.6163C13.6616 10.0457 13.7056 10.0602 13.7432 10.0868C13.7808 10.1134 13.8104 10.1509 13.8284 10.1949C13.8463 10.2388 13.8519 10.2873 13.8445 10.3345C13.837 10.3818 13.8169 10.4257 13.7864 10.4611L11.5215 13.1248C11.4781 13.1747 11.4255 13.2147 11.3671 13.2426C11.3087 13.2704 11.2455 13.2855 11.1815 13.2869H0.489748C0.444539 13.2862 0.400477 13.2717 0.362861 13.2452C0.325246 13.2186 0.295679 13.1811 0.277717 13.1371C0.259755 13.0932 0.254163 13.0447 0.261613 12.9974C0.269064 12.9502 0.28924 12.9062 0.319714 12.8709L2.59136 10.2072ZM13.7966 7.99912C13.8271 8.0345 13.8472 8.07845 13.8547 8.12568C13.8621 8.17292 13.8565 8.22143 13.8386 8.26538C13.8206 8.30933 13.7911 8.34684 13.7534 8.37341C13.7158 8.39999 13.6718 8.41448 13.6265 8.41515L2.93823 8.42416C2.87417 8.42277 2.81103 8.4077 2.75259 8.37985C2.69416 8.352 2.64163 8.31194 2.59817 8.26207L0.316313 5.60737C0.285839 5.57199 0.265663 5.52804 0.258213 5.4808C0.250762 5.43357 0.256354 5.38506 0.274316 5.34111C0.292278 5.29716 0.321845 5.25964 0.359461 5.23307C0.397076 5.2065 0.441138 5.19201 0.486347 5.19133L11.1747 5.18233C11.2387 5.18372 11.3019 5.19879 11.3603 5.22664C11.4187 5.25449 11.4713 5.29455 11.5147 5.34442L13.7966 7.99912ZM2.59136 0.481672C2.63483 0.431804 2.68736 0.391744 2.74579 0.363891C2.80423 0.336039 2.86737 0.320968 2.93143 0.31958L13.6231 0.328585C13.6684 0.32926 13.7124 0.343754 13.75 0.370326C13.7877 0.396897 13.8172 0.434414 13.8352 0.478363C13.8531 0.522312 13.8587 0.570821 13.8513 0.618057C13.8438 0.665293 13.8237 0.709243 13.7932 0.74462L11.5215 3.39932C11.4781 3.44919 11.4255 3.48925 11.3671 3.5171C11.3087 3.54495 11.2455 3.56002 11.1815 3.56141H0.489748C0.444539 3.56074 0.400477 3.54624 0.362861 3.51967C0.325246 3.4931 0.295679 3.45558 0.277717 3.41163C0.259755 3.36769 0.254163 3.31918 0.261613 3.27194C0.269064 3.2247 0.28924 3.18075 0.319714 3.14538L2.59136 0.481672Z" fill="white"/>
</g>
<defs>
<clipPath id="clip0_550_1931">
<rect width="101" height="12.9673" fill="white" transform="translate(0 0.31958)"/>
</clipPath>
</defs>
</svg>
