<svg width="103" height="13" viewBox="0 0 103 13" fill="none" xmlns="http://www.w3.org/2000/svg">
<g clip-path="url(#clip0_550_1734)">
<path d="M30.1119 5.57314H22.6677V3.09748H32.0391V0.621826H22.6505C21.9985 0.621826 21.3732 0.880842 20.9121 1.34189C20.4511 1.80295 20.1921 2.42827 20.1921 3.08029V5.59033C20.1921 6.24236 20.4511 6.86768 20.9121 7.32873C21.3732 7.78978 21.9985 8.0488 22.6505 8.0488H30.0947V10.5245H20.3692V13.0001H30.1119C30.7639 13.0001 31.3892 12.7411 31.8503 12.28C32.3114 11.819 32.5704 11.1937 32.5704 10.5416V8.03161C32.5704 7.37958 32.3114 6.75426 31.8503 6.29321C31.3892 5.83216 30.7639 5.57314 30.1119 5.57314Z" fill="white"/>
<path d="M44.5274 0.621826H37.0558C36.733 0.621826 36.4134 0.685429 36.1152 0.808999C35.817 0.93257 35.5461 1.11369 35.318 1.342C35.0898 1.57031 34.9089 1.84134 34.7855 2.13961C34.6622 2.43787 34.5988 2.75752 34.599 3.08029V10.5416C34.5988 10.8644 34.6622 11.1841 34.7855 11.4823C34.9089 11.7806 35.0898 12.0516 35.318 12.2799C35.5461 12.5083 35.817 12.6894 36.1152 12.8129C36.4134 12.9365 36.733 13.0001 37.0558 13.0001H44.5274C45.1795 13.0001 45.8048 12.7411 46.2658 12.28C46.7269 11.819 46.9859 11.1937 46.9859 10.5416V3.08029C46.9859 2.42827 46.7269 1.80295 46.2658 1.34189C45.8048 0.880842 45.1795 0.621826 44.5274 0.621826V0.621826ZM44.5103 10.5245H37.0833V3.09748H44.5103V10.5245Z" fill="white"/>
<path d="M70.6766 0.621827H63.3906C62.7386 0.621827 62.1133 0.880843 61.6522 1.34189C61.1912 1.80295 60.9321 2.42827 60.9321 3.08029V13.0001H63.4078V8.93247H70.6594V13.0001H73.1351V3.08029C73.1353 2.75738 73.0719 2.43759 72.9484 2.13921C72.8249 1.84083 72.6438 1.56973 72.4155 1.34139C72.1872 1.11306 71.9161 0.931975 71.6177 0.808506C71.3193 0.685037 70.9995 0.621601 70.6766 0.621827ZM70.6594 6.45681H63.4078V3.09748H70.6594V6.45681Z" fill="white"/>
<path d="M99.6624 0.621832H92.3781C92.0549 0.621153 91.7346 0.684243 91.4357 0.807489C91.1369 0.930734 90.8652 1.11172 90.6364 1.34007C90.4076 1.56843 90.226 1.83968 90.1021 2.13829C89.9783 2.4369 89.9145 2.75701 89.9145 3.0803V13.0001H92.3902V8.93248H99.6452V13.0001H102.121V3.0803C102.121 2.42827 101.862 1.80295 101.401 1.3419C100.94 0.880848 100.314 0.621832 99.6624 0.621832ZM99.6452 6.45682H92.3953V3.09749H99.6452V6.45682Z" fill="white"/>
<path d="M85.24 10.5245H84.2497L80.7013 1.65335C80.5799 1.34898 80.3701 1.08799 80.0988 0.904109C79.8276 0.720228 79.5075 0.621899 79.1798 0.621826L76.9758 0.621826C76.5412 0.621826 76.1245 0.794443 75.8172 1.1017C75.51 1.40896 75.3374 1.8257 75.3374 2.26023V13.0001H77.813V3.09748H78.8033L82.35 11.9686C82.4709 12.273 82.6804 12.534 82.9513 12.7179C83.2223 12.9019 83.5423 13.0002 83.8698 13.0001H86.0738C86.5083 13.0001 86.9251 12.8275 87.2323 12.5202C87.5396 12.213 87.7122 11.7962 87.7122 11.3617V0.621826H85.2366L85.24 10.5245Z" fill="white"/>
<path d="M51.6553 0.621826H49.1796V10.5416C49.1796 11.1937 49.4386 11.819 49.8997 12.28C50.3607 12.7411 50.9861 13.0001 51.6381 13.0001H59.0823V10.5245H51.6553V0.621826Z" fill="white"/>
<path fill-rule="evenodd" clip-rule="evenodd" d="M2.62007 10.0603C2.66402 10.0127 2.71713 9.97443 2.77621 9.94784C2.83529 9.92125 2.89913 9.90687 2.96391 9.90554H13.7674C13.8131 9.90619 13.8577 9.92002 13.8957 9.94539C13.9337 9.97075 13.9636 10.0066 13.9818 10.0485C14 10.0905 14.0056 10.1368 13.9981 10.1819C13.9905 10.227 13.9701 10.2689 13.9393 10.3027L11.6493 12.8454C11.6054 12.893 11.5523 12.9312 11.4932 12.9578C11.4341 12.9844 11.3703 12.9988 11.3055 13.0001H0.49513C0.44942 12.9995 0.404868 12.9856 0.366835 12.9603C0.328802 12.9349 0.298907 12.8991 0.280746 12.8571C0.262585 12.8152 0.256931 12.7689 0.264464 12.7238C0.271997 12.6787 0.292397 12.6367 0.323209 12.603L2.62007 10.0603ZM13.9496 7.95252C13.9805 7.98629 14.0009 8.02825 14.0084 8.07334C14.0159 8.11843 14.0103 8.16473 13.9921 8.20669C13.9739 8.24864 13.944 8.28445 13.906 8.30982C13.868 8.33518 13.8234 8.34902 13.7777 8.34966L2.97079 8.35826C2.90601 8.35693 2.84217 8.34255 2.78309 8.31596C2.724 8.28937 2.6709 8.25113 2.62695 8.20353L0.319771 5.66942C0.288958 5.63565 0.268559 5.59369 0.261026 5.5486C0.253492 5.50351 0.259146 5.45721 0.277308 5.41525C0.295469 5.3733 0.325364 5.33749 0.363397 5.31212C0.40143 5.28676 0.445981 5.27292 0.491692 5.27228L11.2986 5.26368C11.3634 5.26501 11.4272 5.2794 11.4863 5.30598C11.5454 5.33257 11.5985 5.37081 11.6425 5.41841L13.9496 7.95252ZM2.62007 0.776555C2.66402 0.728952 2.71713 0.690712 2.77621 0.664125C2.83529 0.637537 2.89913 0.623151 2.96391 0.621826L13.7743 0.630422C13.82 0.631066 13.8645 0.644902 13.9026 0.670267C13.9406 0.695631 13.9705 0.731443 13.9887 0.773396C14.0068 0.815349 14.0125 0.861655 14.0049 0.906745C13.9974 0.951835 13.977 0.993788 13.9462 1.02756L11.6493 3.56167C11.6054 3.60927 11.5523 3.64751 11.4932 3.6741C11.4341 3.70069 11.3703 3.71507 11.3055 3.7164H0.49513C0.44942 3.71575 0.404868 3.70192 0.366835 3.67655C0.328802 3.65119 0.298907 3.61538 0.280746 3.57342C0.262585 3.53147 0.256931 3.48517 0.264464 3.44008C0.271997 3.39499 0.292397 3.35303 0.323209 3.31926L2.62007 0.776555Z" fill="white"/>
</g>
<defs>
<clipPath id="clip0_550_1734">
<rect width="102.121" height="12.3783" fill="white" transform="translate(0 0.621826)"/>
</clipPath>
</defs>
</svg>
